<svg width="141" height="40" viewBox="0 0 141 40" fill="none" xmlns="http://www.w3.org/2000/svg">
<g clip-path="url(#clip0)">
<path d="M24.705 27.573V24.3016H11.4921C10.2812 24.3016 9.30408 23.3244 9.30408 22.1136V7.07375C9.30408 5.86292 10.2812 4.88576 11.4921 4.88576H24.705V1.61438C24.705 0.27609 26.2345 -0.488648 27.2966 0.339818L44.1209 13.3191C44.9493 13.9564 44.9493 15.2309 44.1209 15.8682L27.2966 28.8475C26.2345 29.676 24.705 28.9112 24.705 27.573Z" fill="#1CE878"/>
<path d="M20.0317 38.3852V35.1138H33.2446C34.4555 35.1138 35.4326 34.1367 35.4326 32.9258V17.886C35.4326 16.6752 34.4555 15.698 33.2446 15.698H20.0317V12.4054C20.0317 11.0671 18.5022 10.3024 17.4401 11.1308L0.637096 24.1101C-0.191369 24.7474 -0.191369 26.022 0.637096 26.6592L17.4613 39.6385C18.5022 40.467 20.0317 39.7235 20.0317 38.3852Z" fill="#0A92EF"/>
<path d="M55.5495 12.9579H50.8124V10.0264H63.5368V12.9579H58.7996V26.3408H55.5283V12.9579H55.5495Z" fill="#00071E"/>
<path d="M68.1887 14.6572V17.3763C65.8095 17.3763 64.28 18.7358 64.28 20.8813V26.3407H61.0511V14.9121H64.28V17.0364C65.0235 15.5707 66.4468 14.6572 68.1887 14.6572Z" fill="#00071E"/>
<path d="M67.6364 20.6264C67.6364 17.3763 70.4829 14.6572 73.8817 14.6572C77.2593 14.6572 80.0846 17.3763 80.0846 20.6264C80.0846 23.8766 77.2593 26.6169 73.8817 26.6169C70.4829 26.6169 67.6364 23.8766 67.6364 20.6264ZM77.0256 20.6264C77.0256 18.8633 75.5811 17.3763 73.8817 17.3763C72.161 17.3763 70.7165 18.8633 70.7165 20.6264C70.7165 22.3896 72.161 23.8978 73.8817 23.8978C75.5811 23.8978 77.0256 22.3896 77.0256 20.6264Z" fill="#00071E"/>
<path d="M93.4891 20.6264C93.4891 24.1315 91.2798 26.6169 88.2209 26.6169C86.6277 26.6169 85.3106 25.9371 84.3972 24.7475V30.1644H81.1683V14.9121H84.3972V16.5053C85.3106 15.337 86.6277 14.6572 88.2209 14.6572C91.2798 14.6572 93.4891 17.1214 93.4891 20.6264ZM90.3452 20.6264C90.3452 18.7358 89.0918 17.3763 87.2862 17.3763C85.7143 17.3763 84.5672 18.5234 84.3972 20.1803V21.0725C84.5672 22.7507 85.7143 23.8978 87.2862 23.8978C89.0918 23.8978 90.3452 22.5383 90.3452 20.6264Z" fill="#00071E"/>
<path d="M103.197 22.7507L105.258 24.8537C104.238 25.9159 102.284 26.6169 100.584 26.6169C97.1855 26.6169 94.5302 24.1102 94.5302 20.6052C94.5302 17.1639 97.0793 14.6572 100.414 14.6572C104.004 14.6572 106.086 17.3763 106.086 21.6886H97.844C98.2264 22.9206 99.2248 23.7703 100.563 23.7703C101.477 23.7703 102.581 23.3455 103.197 22.7507ZM97.8865 19.3731H102.985C102.666 18.2472 101.838 17.525 100.542 17.525C99.331 17.5037 98.3114 18.2048 97.8865 19.3731Z" fill="#00071E"/>
<path d="M114.498 14.6572V17.3763C112.119 17.3763 110.589 18.7358 110.589 20.8813V26.3407H107.36V14.9121H110.589V17.0364C111.333 15.5707 112.756 14.6572 114.498 14.6572Z" fill="#00071E"/>
<path d="M115.73 14.9121H118.959V26.3407H115.73V14.9121Z" fill="#00071E"/>
<path d="M130.834 19.5218V26.3407H127.711V25.1936C126.904 26.1283 125.587 26.6169 124.355 26.6169C121.933 26.6169 120.042 25.1511 120.042 22.9631C120.042 20.7114 122.145 19.1607 124.801 19.1607C125.735 19.1607 126.755 19.3519 127.711 19.7342V19.5218C127.711 18.311 126.967 17.2488 125.077 17.2488C124.015 17.2488 123.016 17.61 122.124 18.0561L121.041 15.9105C122.655 15.1033 124.227 14.6572 125.82 14.6572C128.794 14.6572 130.834 16.5266 130.834 19.5218ZM127.711 22.7507V21.6886C126.989 21.4336 126.139 21.2637 125.268 21.2637C124.1 21.2637 123.165 21.9435 123.165 22.8782C123.165 23.8128 123.972 24.3864 125.098 24.3864C126.309 24.3864 127.477 23.8128 127.711 22.7507Z" fill="#00071E"/>
<path d="M132.172 10.0898H135.401V26.3405H132.172V10.0898Z" fill="#00071E"/>
<path d="M119.023 9.83496H115.73V13.1276H119.023V9.83496Z" fill="#00071E"/>
<path d="M140.669 24.407C140.669 25.5116 139.776 26.4038 138.629 26.4038C137.504 26.4038 136.569 25.5116 136.569 24.407C136.569 23.3023 137.504 22.4102 138.629 22.4102C139.798 22.4102 140.669 23.3023 140.669 24.407ZM137.185 24.407C137.185 25.2354 137.801 25.894 138.629 25.894C139.458 25.9152 140.074 25.2142 140.074 24.3857C140.074 23.5573 139.458 22.8775 138.608 22.8775C137.801 22.8987 137.185 23.5785 137.185 24.407ZM138.374 25.3416H137.801V23.536C137.928 23.5148 138.247 23.4723 138.608 23.4723C139.033 23.4723 139.203 23.536 139.352 23.621C139.458 23.6847 139.543 23.8334 139.543 24.0246C139.543 24.2158 139.373 24.3645 139.118 24.4495V24.4707C139.309 24.5344 139.437 24.6831 139.479 24.938C139.543 25.2142 139.564 25.3204 139.607 25.3841H138.991C138.927 25.3204 138.906 25.1717 138.842 24.9805C138.799 24.7893 138.714 24.7044 138.523 24.7044H138.332V25.3416H138.374ZM138.396 24.3008H138.566C138.778 24.3008 138.906 24.2158 138.906 24.0883C138.906 23.9396 138.778 23.8547 138.587 23.8547C138.523 23.8547 138.438 23.8759 138.396 23.8759V24.3008Z" fill="#00071E"/>
</g>
<defs>
<clipPath id="clip0">
<rect width="140.669" height="40" fill="white"/>
</clipPath>
</defs>
</svg>
